<?xml version="1.0" encoding="utf-8"?>
<svg viewBox="10.964 5.135 482.6818 469.659" width="482.6818" height="469.659" xmlns="http://www.w3.org/2000/svg">
  <path class="" d="M 489.226 82.821 L 448.396 43.084 C 442.74 37.58 435.066 34.489 427.062 34.489 L 282.473 34.489 L 282.473 19.812 C 282.473 11.703 275.723 5.135 267.389 5.135 L 237.221 5.135 C 228.887 5.135 222.137 11.703 222.137 19.812 L 222.137 34.489 L 63.755 34.489 C 51.264 34.489 41.129 44.35 41.129 56.504 L 41.129 129.888 C 41.129 142.042 51.264 151.903 63.755 151.903 L 427.062 151.903 C 435.066 151.903 442.73 148.812 448.396 143.308 L 489.226 103.58 C 495.119 97.838 495.119 88.554 489.226 82.821 Z M 222.137 460.117 C 222.137 468.226 228.887 474.794 237.221 474.794 L 267.389 474.794 C 275.723 474.794 282.473 468.226 282.473 460.117 L 282.473 357.379 L 222.137 357.379 L 222.137 460.117 Z M 440.854 210.611 L 282.473 210.611 L 282.473 181.257 L 222.137 181.257 L 222.137 210.611 L 77.548 210.611 C 69.544 210.611 61.879 213.702 56.213 219.206 L 15.383 258.943 C 9.491 264.676 9.491 273.969 15.383 279.702 L 56.213 319.43 C 61.87 324.934 69.544 328.025 77.548 328.025 L 440.854 328.025 C 453.345 328.025 463.48 318.164 463.48 306.01 L 463.48 232.626 C 463.48 220.472 453.345 210.611 440.854 210.611 Z" style="fill: rgba(23, 73, 34, 0.9);" transform="matrix(1, 0, 0, 1, 2.2737367544323206e-13, 0)"/>
  <rect x="252.325" y="401.985" width="114.585" height="22.043" style="stroke: rgb(0, 0, 0); fill: rgb(191, 130, 130);" transform="matrix(1, 0, 0, 1, 2.2737367544323206e-13, 0)"/>
  <rect x="252.493" y="380.127" width="114.334" height="23.103" style="fill: rgb(216, 216, 216); stroke: rgb(0, 0, 0);" transform="matrix(1, 0, 0, 1, 2.2737367544323206e-13, 0)"/>
  <rect y="446.355" width="114.585" height="22.043" style="stroke: rgb(0, 0, 0); fill: rgb(191, 130, 130);" x="252.167" transform="matrix(1, 0, 0, 1, 2.2737367544323206e-13, 0)"/>
  <rect x="252.335" y="424.497" width="114.334" height="23.103" style="fill: rgb(216, 216, 216); stroke: rgb(0, 0, 0);" transform="matrix(1, 0, 0, 1, 2.2737367544323206e-13, 0)"/>
  <rect x="366.427" y="424.171" width="114.585" height="22.043" style="stroke: rgb(0, 0, 0); fill: rgb(191, 130, 130);" transform="matrix(1, 0, 0, 1, 2.2737367544323206e-13, 0)"/>
  <rect x="366.595" y="402.313" width="114.334" height="23.103" style="fill: rgb(216, 216, 216); stroke: rgb(0, 0, 0);" transform="matrix(1, 0, 0, 1, 2.2737367544323206e-13, 0)"/>
  <rect y="379.345" width="114.585" height="22.043" style="stroke: rgb(0, 0, 0); fill: rgb(191, 130, 130);" x="366.723" transform="matrix(1, 0, 0, 1, 2.2737367544323206e-13, 0)"/>
  <rect x="366.437" y="446.683" width="114.334" height="23.103" style="fill: rgb(216, 216, 216); stroke: rgb(0, 0, 0);" transform="matrix(1, 0, 0, 1, 2.2737367544323206e-13, 0)"/>
</svg>
